<mxfile host="app.diagrams.net" modified="2022-10-01T12:23:49.720Z" agent="5.0 (Windows NT 10.0; Win64; x64) AppleWebKit/537.36 (KHTML, like Gecko) Chrome/105.0.0.0 Safari/537.36 Edg/105.0.1343.53" etag="5HQalFWk3nFRliHatIkB" version="20.3.7" type="github">
  <diagram id="C5RBs43oDa-KdzZeNtuy" name="Page-1">
    <mxGraphModel dx="1184" dy="628" grid="1" gridSize="10" guides="1" tooltips="1" connect="1" arrows="1" fold="1" page="1" pageScale="1" pageWidth="827" pageHeight="1169" math="0" shadow="0">
      <root>
        <mxCell id="WIyWlLk6GJQsqaUBKTNV-0" />
        <mxCell id="WIyWlLk6GJQsqaUBKTNV-1" parent="WIyWlLk6GJQsqaUBKTNV-0" />
        <mxCell id="kxIFBW0uknAkVecd-re5-1" style="edgeStyle=orthogonalEdgeStyle;rounded=0;orthogonalLoop=1;jettySize=auto;html=1;" edge="1" parent="WIyWlLk6GJQsqaUBKTNV-1" source="kxIFBW0uknAkVecd-re5-0">
          <mxGeometry relative="1" as="geometry">
            <mxPoint x="399" y="110" as="targetPoint" />
          </mxGeometry>
        </mxCell>
        <mxCell id="kxIFBW0uknAkVecd-re5-0" value="" style="ellipse;whiteSpace=wrap;html=1;aspect=fixed;fillColor=#8C8C8C;strokeColor=none;" vertex="1" parent="WIyWlLk6GJQsqaUBKTNV-1">
          <mxGeometry x="374" y="20" width="50" height="50" as="geometry" />
        </mxCell>
        <mxCell id="kxIFBW0uknAkVecd-re5-5" value="" style="edgeStyle=orthogonalEdgeStyle;rounded=0;orthogonalLoop=1;jettySize=auto;html=1;" edge="1" parent="WIyWlLk6GJQsqaUBKTNV-1">
          <mxGeometry relative="1" as="geometry">
            <mxPoint x="399" y="150" as="sourcePoint" />
            <mxPoint x="399" y="200" as="targetPoint" />
          </mxGeometry>
        </mxCell>
        <mxCell id="kxIFBW0uknAkVecd-re5-6" style="edgeStyle=orthogonalEdgeStyle;rounded=0;orthogonalLoop=1;jettySize=auto;html=1;" edge="1" parent="WIyWlLk6GJQsqaUBKTNV-1">
          <mxGeometry relative="1" as="geometry">
            <mxPoint x="520" y="250" as="targetPoint" />
            <mxPoint x="429.5" y="220" as="sourcePoint" />
          </mxGeometry>
        </mxCell>
        <mxCell id="kxIFBW0uknAkVecd-re5-7" style="edgeStyle=orthogonalEdgeStyle;rounded=0;orthogonalLoop=1;jettySize=auto;html=1;" edge="1" parent="WIyWlLk6GJQsqaUBKTNV-1">
          <mxGeometry relative="1" as="geometry">
            <mxPoint x="280" y="280" as="targetPoint" />
            <mxPoint x="368.5" y="220" as="sourcePoint" />
            <Array as="points">
              <mxPoint x="280" y="220" />
            </Array>
          </mxGeometry>
        </mxCell>
        <mxCell id="kxIFBW0uknAkVecd-re5-8" value="[ a == 0 ]" style="text;html=1;align=center;verticalAlign=middle;resizable=0;points=[];autosize=1;strokeColor=none;fillColor=none;" vertex="1" parent="WIyWlLk6GJQsqaUBKTNV-1">
          <mxGeometry x="439.5" y="190" width="70" height="30" as="geometry" />
        </mxCell>
        <mxCell id="kxIFBW0uknAkVecd-re5-9" value="[ a != 0 ]" style="text;html=1;align=center;verticalAlign=middle;resizable=0;points=[];autosize=1;strokeColor=none;fillColor=none;" vertex="1" parent="WIyWlLk6GJQsqaUBKTNV-1">
          <mxGeometry x="290" y="190" width="70" height="30" as="geometry" />
        </mxCell>
        <mxCell id="kxIFBW0uknAkVecd-re5-10" value="Read a,b,c" style="shape=parallelogram;perimeter=parallelogramPerimeter;whiteSpace=wrap;html=1;fixedSize=1;strokeColor=default;fillColor=default;" vertex="1" parent="WIyWlLk6GJQsqaUBKTNV-1">
          <mxGeometry x="343.5" y="110" width="116.5" height="40" as="geometry" />
        </mxCell>
        <mxCell id="kxIFBW0uknAkVecd-re5-11" value="" style="rhombus;whiteSpace=wrap;html=1;strokeColor=default;fillColor=default;" vertex="1" parent="WIyWlLk6GJQsqaUBKTNV-1">
          <mxGeometry x="369" y="200" width="60" height="40" as="geometry" />
        </mxCell>
        <mxCell id="kxIFBW0uknAkVecd-re5-15" style="edgeStyle=orthogonalEdgeStyle;rounded=0;orthogonalLoop=1;jettySize=auto;html=1;" edge="1" parent="WIyWlLk6GJQsqaUBKTNV-1" source="kxIFBW0uknAkVecd-re5-12">
          <mxGeometry relative="1" as="geometry">
            <mxPoint x="470" y="300" as="targetPoint" />
          </mxGeometry>
        </mxCell>
        <mxCell id="kxIFBW0uknAkVecd-re5-16" style="edgeStyle=orthogonalEdgeStyle;rounded=0;orthogonalLoop=1;jettySize=auto;html=1;" edge="1" parent="WIyWlLk6GJQsqaUBKTNV-1" source="kxIFBW0uknAkVecd-re5-12" target="kxIFBW0uknAkVecd-re5-24">
          <mxGeometry relative="1" as="geometry">
            <mxPoint x="590" y="270" as="targetPoint" />
          </mxGeometry>
        </mxCell>
        <mxCell id="kxIFBW0uknAkVecd-re5-12" value="" style="rhombus;whiteSpace=wrap;html=1;strokeColor=default;fillColor=default;" vertex="1" parent="WIyWlLk6GJQsqaUBKTNV-1">
          <mxGeometry x="490" y="250" width="60" height="40" as="geometry" />
        </mxCell>
        <mxCell id="kxIFBW0uknAkVecd-re5-17" value="[ b == 0 ]" style="text;html=1;align=center;verticalAlign=middle;resizable=0;points=[];autosize=1;strokeColor=none;fillColor=none;gradientColor=none;" vertex="1" parent="WIyWlLk6GJQsqaUBKTNV-1">
          <mxGeometry x="530" y="240" width="70" height="30" as="geometry" />
        </mxCell>
        <mxCell id="kxIFBW0uknAkVecd-re5-18" value="[ b != 0 ]" style="text;html=1;align=center;verticalAlign=middle;resizable=0;points=[];autosize=1;strokeColor=none;fillColor=none;gradientColor=none;" vertex="1" parent="WIyWlLk6GJQsqaUBKTNV-1">
          <mxGeometry x="439.5" y="240" width="70" height="30" as="geometry" />
        </mxCell>
        <mxCell id="kxIFBW0uknAkVecd-re5-20" style="edgeStyle=orthogonalEdgeStyle;rounded=0;orthogonalLoop=1;jettySize=auto;html=1;" edge="1" parent="WIyWlLk6GJQsqaUBKTNV-1" source="kxIFBW0uknAkVecd-re5-19">
          <mxGeometry relative="1" as="geometry">
            <mxPoint x="469.0000000000002" y="360" as="targetPoint" />
          </mxGeometry>
        </mxCell>
        <mxCell id="kxIFBW0uknAkVecd-re5-19" value="x = -c / b" style="rounded=1;whiteSpace=wrap;html=1;strokeColor=default;fillColor=none;gradientColor=none;" vertex="1" parent="WIyWlLk6GJQsqaUBKTNV-1">
          <mxGeometry x="429" y="300" width="80" height="30" as="geometry" />
        </mxCell>
        <mxCell id="kxIFBW0uknAkVecd-re5-22" style="edgeStyle=orthogonalEdgeStyle;rounded=0;orthogonalLoop=1;jettySize=auto;html=1;" edge="1" parent="WIyWlLk6GJQsqaUBKTNV-1" source="kxIFBW0uknAkVecd-re5-21">
          <mxGeometry relative="1" as="geometry">
            <mxPoint x="469.5" y="420" as="targetPoint" />
          </mxGeometry>
        </mxCell>
        <mxCell id="kxIFBW0uknAkVecd-re5-21" value="print x" style="rounded=1;whiteSpace=wrap;html=1;strokeColor=default;fillColor=none;gradientColor=none;" vertex="1" parent="WIyWlLk6GJQsqaUBKTNV-1">
          <mxGeometry x="429" y="360" width="81" height="30" as="geometry" />
        </mxCell>
        <mxCell id="kxIFBW0uknAkVecd-re5-23" value="" style="ellipse;whiteSpace=wrap;html=1;aspect=fixed;fillColor=#8C8C8C;" vertex="1" parent="WIyWlLk6GJQsqaUBKTNV-1">
          <mxGeometry x="454.5" y="420" width="30" height="30" as="geometry" />
        </mxCell>
        <mxCell id="kxIFBW0uknAkVecd-re5-26" style="edgeStyle=orthogonalEdgeStyle;rounded=0;orthogonalLoop=1;jettySize=auto;html=1;" edge="1" parent="WIyWlLk6GJQsqaUBKTNV-1" source="kxIFBW0uknAkVecd-re5-24">
          <mxGeometry relative="1" as="geometry">
            <mxPoint x="760" y="330" as="targetPoint" />
          </mxGeometry>
        </mxCell>
        <mxCell id="kxIFBW0uknAkVecd-re5-27" style="edgeStyle=orthogonalEdgeStyle;rounded=0;orthogonalLoop=1;jettySize=auto;html=1;" edge="1" parent="WIyWlLk6GJQsqaUBKTNV-1" source="kxIFBW0uknAkVecd-re5-24">
          <mxGeometry relative="1" as="geometry">
            <mxPoint x="650" y="330" as="targetPoint" />
          </mxGeometry>
        </mxCell>
        <mxCell id="kxIFBW0uknAkVecd-re5-24" value="" style="rhombus;whiteSpace=wrap;html=1;strokeColor=default;fillColor=default;" vertex="1" parent="WIyWlLk6GJQsqaUBKTNV-1">
          <mxGeometry x="620" y="250" width="60" height="40" as="geometry" />
        </mxCell>
        <mxCell id="kxIFBW0uknAkVecd-re5-28" value="[ c == 0 ]" style="text;html=1;align=center;verticalAlign=middle;resizable=0;points=[];autosize=1;strokeColor=none;fillColor=none;gradientColor=none;" vertex="1" parent="WIyWlLk6GJQsqaUBKTNV-1">
          <mxGeometry x="680" y="240" width="70" height="30" as="geometry" />
        </mxCell>
        <mxCell id="kxIFBW0uknAkVecd-re5-29" value="[ c != 0 ]" style="text;html=1;align=center;verticalAlign=middle;resizable=0;points=[];autosize=1;strokeColor=none;fillColor=none;gradientColor=none;" vertex="1" parent="WIyWlLk6GJQsqaUBKTNV-1">
          <mxGeometry x="580" y="290" width="70" height="30" as="geometry" />
        </mxCell>
        <mxCell id="kxIFBW0uknAkVecd-re5-35" style="edgeStyle=orthogonalEdgeStyle;rounded=0;orthogonalLoop=1;jettySize=auto;html=1;" edge="1" parent="WIyWlLk6GJQsqaUBKTNV-1" source="kxIFBW0uknAkVecd-re5-31">
          <mxGeometry relative="1" as="geometry">
            <mxPoint x="760.5" y="390" as="targetPoint" />
          </mxGeometry>
        </mxCell>
        <mxCell id="kxIFBW0uknAkVecd-re5-31" value="print Any Value" style="rounded=1;whiteSpace=wrap;html=1;strokeColor=default;fillColor=none;gradientColor=none;" vertex="1" parent="WIyWlLk6GJQsqaUBKTNV-1">
          <mxGeometry x="720" y="330" width="81" height="30" as="geometry" />
        </mxCell>
        <mxCell id="kxIFBW0uknAkVecd-re5-33" value="" style="ellipse;whiteSpace=wrap;html=1;aspect=fixed;fillColor=#8C8C8C;" vertex="1" parent="WIyWlLk6GJQsqaUBKTNV-1">
          <mxGeometry x="745.5" y="390" width="30" height="30" as="geometry" />
        </mxCell>
        <mxCell id="kxIFBW0uknAkVecd-re5-36" style="edgeStyle=orthogonalEdgeStyle;rounded=0;orthogonalLoop=1;jettySize=auto;html=1;" edge="1" parent="WIyWlLk6GJQsqaUBKTNV-1" source="kxIFBW0uknAkVecd-re5-34">
          <mxGeometry relative="1" as="geometry">
            <mxPoint x="650" y="390" as="targetPoint" />
          </mxGeometry>
        </mxCell>
        <mxCell id="kxIFBW0uknAkVecd-re5-34" value="print No roots" style="rounded=1;whiteSpace=wrap;html=1;strokeColor=default;fillColor=none;gradientColor=none;" vertex="1" parent="WIyWlLk6GJQsqaUBKTNV-1">
          <mxGeometry x="609.5" y="330" width="81" height="30" as="geometry" />
        </mxCell>
        <mxCell id="kxIFBW0uknAkVecd-re5-37" value="" style="ellipse;whiteSpace=wrap;html=1;aspect=fixed;fillColor=#8C8C8C;perimeterSpacing=1;" vertex="1" parent="WIyWlLk6GJQsqaUBKTNV-1">
          <mxGeometry x="635" y="390" width="30" height="30" as="geometry" />
        </mxCell>
        <mxCell id="kxIFBW0uknAkVecd-re5-40" style="edgeStyle=orthogonalEdgeStyle;rounded=0;orthogonalLoop=1;jettySize=auto;html=1;fontColor=#FFFFFF;" edge="1" parent="WIyWlLk6GJQsqaUBKTNV-1" source="kxIFBW0uknAkVecd-re5-39">
          <mxGeometry relative="1" as="geometry">
            <mxPoint x="280" y="340" as="targetPoint" />
          </mxGeometry>
        </mxCell>
        <mxCell id="kxIFBW0uknAkVecd-re5-39" value="d = b²&amp;nbsp;- 4ac" style="rounded=1;whiteSpace=wrap;html=1;strokeColor=default;fillColor=none;gradientColor=none;" vertex="1" parent="WIyWlLk6GJQsqaUBKTNV-1">
          <mxGeometry x="240" y="280" width="80" height="30" as="geometry" />
        </mxCell>
        <mxCell id="kxIFBW0uknAkVecd-re5-42" style="edgeStyle=orthogonalEdgeStyle;rounded=0;orthogonalLoop=1;jettySize=auto;html=1;fontColor=#FFFFFF;" edge="1" parent="WIyWlLk6GJQsqaUBKTNV-1" source="kxIFBW0uknAkVecd-re5-41">
          <mxGeometry relative="1" as="geometry">
            <mxPoint x="360" y="400" as="targetPoint" />
          </mxGeometry>
        </mxCell>
        <mxCell id="kxIFBW0uknAkVecd-re5-43" style="edgeStyle=orthogonalEdgeStyle;rounded=0;orthogonalLoop=1;jettySize=auto;html=1;fontColor=#FFFFFF;" edge="1" parent="WIyWlLk6GJQsqaUBKTNV-1" source="kxIFBW0uknAkVecd-re5-41">
          <mxGeometry relative="1" as="geometry">
            <mxPoint x="120" y="400" as="targetPoint" />
          </mxGeometry>
        </mxCell>
        <mxCell id="kxIFBW0uknAkVecd-re5-41" value="" style="rhombus;whiteSpace=wrap;html=1;strokeColor=default;fillColor=default;" vertex="1" parent="WIyWlLk6GJQsqaUBKTNV-1">
          <mxGeometry x="250" y="340" width="60" height="40" as="geometry" />
        </mxCell>
        <mxCell id="kxIFBW0uknAkVecd-re5-44" value="[ d == 0 ]" style="text;html=1;align=center;verticalAlign=middle;resizable=0;points=[];autosize=1;strokeColor=none;fillColor=none;gradientColor=none;" vertex="1" parent="WIyWlLk6GJQsqaUBKTNV-1">
          <mxGeometry x="299" y="330" width="70" height="30" as="geometry" />
        </mxCell>
        <mxCell id="kxIFBW0uknAkVecd-re5-46" style="edgeStyle=orthogonalEdgeStyle;rounded=0;orthogonalLoop=1;jettySize=auto;html=1;fontColor=#FFFFFF;" edge="1" parent="WIyWlLk6GJQsqaUBKTNV-1" source="kxIFBW0uknAkVecd-re5-45">
          <mxGeometry relative="1" as="geometry">
            <mxPoint x="360" y="460" as="targetPoint" />
          </mxGeometry>
        </mxCell>
        <mxCell id="kxIFBW0uknAkVecd-re5-45" value="x = -b / (2a)" style="rounded=1;whiteSpace=wrap;html=1;strokeColor=default;fillColor=none;gradientColor=none;" vertex="1" parent="WIyWlLk6GJQsqaUBKTNV-1">
          <mxGeometry x="320" y="400" width="80" height="30" as="geometry" />
        </mxCell>
        <mxCell id="kxIFBW0uknAkVecd-re5-48" style="edgeStyle=orthogonalEdgeStyle;rounded=0;orthogonalLoop=1;jettySize=auto;html=1;fontColor=#FFFFFF;" edge="1" parent="WIyWlLk6GJQsqaUBKTNV-1" source="kxIFBW0uknAkVecd-re5-47">
          <mxGeometry relative="1" as="geometry">
            <mxPoint x="359.5" y="520" as="targetPoint" />
          </mxGeometry>
        </mxCell>
        <mxCell id="kxIFBW0uknAkVecd-re5-47" value="print x" style="rounded=1;whiteSpace=wrap;html=1;strokeColor=default;fillColor=none;gradientColor=none;" vertex="1" parent="WIyWlLk6GJQsqaUBKTNV-1">
          <mxGeometry x="319" y="460" width="81" height="30" as="geometry" />
        </mxCell>
        <mxCell id="kxIFBW0uknAkVecd-re5-49" value="" style="ellipse;whiteSpace=wrap;html=1;aspect=fixed;fillColor=#8C8C8C;" vertex="1" parent="WIyWlLk6GJQsqaUBKTNV-1">
          <mxGeometry x="345" y="520" width="30" height="30" as="geometry" />
        </mxCell>
        <mxCell id="kxIFBW0uknAkVecd-re5-50" value="[ d != 0 ]" style="text;html=1;align=center;verticalAlign=middle;resizable=0;points=[];autosize=1;strokeColor=none;fillColor=none;gradientColor=none;" vertex="1" parent="WIyWlLk6GJQsqaUBKTNV-1">
          <mxGeometry x="180" y="330" width="70" height="30" as="geometry" />
        </mxCell>
        <mxCell id="kxIFBW0uknAkVecd-re5-53" style="edgeStyle=orthogonalEdgeStyle;rounded=0;orthogonalLoop=1;jettySize=auto;html=1;fontColor=#FFFFFF;" edge="1" parent="WIyWlLk6GJQsqaUBKTNV-1" source="kxIFBW0uknAkVecd-re5-51">
          <mxGeometry relative="1" as="geometry">
            <mxPoint x="40" y="460" as="targetPoint" />
          </mxGeometry>
        </mxCell>
        <mxCell id="kxIFBW0uknAkVecd-re5-66" style="edgeStyle=orthogonalEdgeStyle;rounded=0;orthogonalLoop=1;jettySize=auto;html=1;fontColor=#FFFFFF;" edge="1" parent="WIyWlLk6GJQsqaUBKTNV-1" source="kxIFBW0uknAkVecd-re5-51">
          <mxGeometry relative="1" as="geometry">
            <mxPoint x="220" y="450" as="targetPoint" />
          </mxGeometry>
        </mxCell>
        <mxCell id="kxIFBW0uknAkVecd-re5-51" value="" style="rhombus;whiteSpace=wrap;html=1;strokeColor=default;fillColor=default;" vertex="1" parent="WIyWlLk6GJQsqaUBKTNV-1">
          <mxGeometry x="90" y="400" width="62" height="40" as="geometry" />
        </mxCell>
        <mxCell id="kxIFBW0uknAkVecd-re5-54" value="[ d &amp;gt; 0 ]" style="text;html=1;align=center;verticalAlign=middle;resizable=0;points=[];autosize=1;strokeColor=none;fillColor=none;gradientColor=none;" vertex="1" parent="WIyWlLk6GJQsqaUBKTNV-1">
          <mxGeometry x="152" y="390" width="60" height="30" as="geometry" />
        </mxCell>
        <mxCell id="kxIFBW0uknAkVecd-re5-55" value="[ d &amp;lt; 0 ]" style="text;html=1;align=center;verticalAlign=middle;resizable=0;points=[];autosize=1;strokeColor=none;fillColor=none;gradientColor=none;" vertex="1" parent="WIyWlLk6GJQsqaUBKTNV-1">
          <mxGeometry x="40" y="390" width="60" height="30" as="geometry" />
        </mxCell>
        <mxCell id="kxIFBW0uknAkVecd-re5-60" style="edgeStyle=orthogonalEdgeStyle;rounded=0;orthogonalLoop=1;jettySize=auto;html=1;fontColor=#FFFFFF;" edge="1" parent="WIyWlLk6GJQsqaUBKTNV-1" source="kxIFBW0uknAkVecd-re5-59">
          <mxGeometry relative="1" as="geometry">
            <mxPoint x="40.5" y="520" as="targetPoint" />
          </mxGeometry>
        </mxCell>
        <mxCell id="kxIFBW0uknAkVecd-re5-59" value="print No roots" style="rounded=1;whiteSpace=wrap;html=1;strokeColor=default;fillColor=none;gradientColor=none;" vertex="1" parent="WIyWlLk6GJQsqaUBKTNV-1">
          <mxGeometry y="460" width="81" height="30" as="geometry" />
        </mxCell>
        <mxCell id="kxIFBW0uknAkVecd-re5-61" value="" style="ellipse;whiteSpace=wrap;html=1;aspect=fixed;fillColor=#8C8C8C;" vertex="1" parent="WIyWlLk6GJQsqaUBKTNV-1">
          <mxGeometry x="25.5" y="520" width="30" height="30" as="geometry" />
        </mxCell>
        <mxCell id="kxIFBW0uknAkVecd-re5-67" style="edgeStyle=orthogonalEdgeStyle;rounded=0;orthogonalLoop=1;jettySize=auto;html=1;fontColor=#FFFFFF;" edge="1" parent="WIyWlLk6GJQsqaUBKTNV-1" source="kxIFBW0uknAkVecd-re5-62">
          <mxGeometry relative="1" as="geometry">
            <mxPoint x="217.49999999999977" y="540" as="targetPoint" />
          </mxGeometry>
        </mxCell>
        <mxCell id="kxIFBW0uknAkVecd-re5-62" value="x1 = (-b + √d) / (2a)&lt;br&gt;x2 = (-b - √d) / (2a)" style="rounded=1;whiteSpace=wrap;html=1;strokeColor=default;fillColor=none;gradientColor=none;" vertex="1" parent="WIyWlLk6GJQsqaUBKTNV-1">
          <mxGeometry x="152" y="450" width="131" height="45" as="geometry" />
        </mxCell>
        <mxCell id="kxIFBW0uknAkVecd-re5-69" style="edgeStyle=orthogonalEdgeStyle;rounded=0;orthogonalLoop=1;jettySize=auto;html=1;fontColor=#FFFFFF;" edge="1" parent="WIyWlLk6GJQsqaUBKTNV-1" source="kxIFBW0uknAkVecd-re5-68">
          <mxGeometry relative="1" as="geometry">
            <mxPoint x="217.49999999999977" y="610" as="targetPoint" />
          </mxGeometry>
        </mxCell>
        <mxCell id="kxIFBW0uknAkVecd-re5-68" value="print x1, x2" style="rounded=1;whiteSpace=wrap;html=1;strokeColor=default;fillColor=none;gradientColor=none;" vertex="1" parent="WIyWlLk6GJQsqaUBKTNV-1">
          <mxGeometry x="177" y="540" width="81" height="30" as="geometry" />
        </mxCell>
        <mxCell id="kxIFBW0uknAkVecd-re5-70" value="" style="ellipse;whiteSpace=wrap;html=1;aspect=fixed;fillColor=#8C8C8C;" vertex="1" parent="WIyWlLk6GJQsqaUBKTNV-1">
          <mxGeometry x="202.5" y="610" width="30" height="30" as="geometry" />
        </mxCell>
      </root>
    </mxGraphModel>
  </diagram>
</mxfile>
